<svg xmlns="http://www.w3.org/2000/svg" viewBox="0 0 68.65998 57.54875"><defs><style>.cls-1{fill:#00a4fa;}.cls-2{fill:#009aea;}.cls-3{fill:#009dee;}.cls-4{fill:#00a1f5;}.cls-5{fill:#0097e6;}.cls-6{fill:#009ff2;}.cls-7{fill:#00a6fd;}.cls-8{fill:#009ef1;}.cls-9{fill:#00a2f6;}.cls-10{fill:#009bed;}.cls-11{fill:#00a5fb;}.cls-12{fill:#0098e8;}.cls-13{fill:#00a5fa;}.cls-14{fill:#0099e8;}.cls-15{fill:#00a6fb;}.cls-16{fill:#0098e7;}.cls-17{fill:#01a3f7;}.cls-18{fill:#009aeb;}.cls-19{fill:#009bec;}.cls-20{fill:#01a0f2;}.cls-21{fill:#019ff1;}.cls-22{fill:#00a2f7;}.cls-23{fill:#00a0f3;}.cls-24{fill:#009ced;}.cls-25{fill:#019def;}</style></defs><title>logo</title><g id="Layer_2" data-name="Layer 2"><g id="Layer_1-2" data-name="Layer 1"><path class="cls-1" d="M58.84725,25.77947c-.47489,1.7548-.94386,3.51123-1.42589,5.26406q-1.56227,5.681-3.13384,11.35944a3.27464,3.27464,0,0,1-3.3843,2.64785c-.29446-.50315-.10977-1.05354-.14883-1.58123a.879.879,0,0,1,.14882-.723,1.11567,1.11567,0,0,0,1.0976-.9584q3.03342-11.03289,6.09542-22.05793c.1569-.56677.32412-1.13068.48654-1.69592.33126.06217.30725.33524.31442.56636.02149.69155.01558,1.38383.00688,2.0756C58.88267,22.37735,58.967,24.07958,58.84725,25.77947Z"/><path class="cls-2" d="M17.58166,14.81629a1.2535,1.2535,0,0,0-.77986.96509q-3.24183,11.76716-6.49935,23.53a1.91647,1.91647,0,0,1-.09163.22213c-.349-.03537-.3201-.31634-.33162-.54493-.02518-.49935-.01028-1-.00907-1.50012.00405-1.67781-.01191-3.35565.0083-5.03342a.57535.57535,0,0,0-.03458-.28468q1.26979-4.63171,2.54029-9.26324c.73029-2.65346,1.45913-5.30737,2.20361-7.95686a3.19884,3.19884,0,0,1,2.79169-2.44539c.35859-.14088.51437.02416.53262.36667.02638.49524.02054.99117.00274,1.48675C17.90669,14.58387,17.83394,14.7664,17.58166,14.81629Z"/><path class="cls-3" d="M29.00968,44.36791a3.186,3.186,0,0,1-2.92063-2.41383c-.94209-3.36242-1.86194-6.73108-2.78785-10.098-.16609-.604-.31813-1.2118-.47665-1.81785a.91616.91616,0,0,0,.02967-.47539c-.01157-1.96682-.01317-3.9337.00587-5.90038.00261-.26941-.06762-.67292.44483-.60034.57681,2.06024,1.16,4.11871,1.72905,6.1811q1.62569,5.89216,3.235,11.78882a1.38556,1.38556,0,0,0,.74076,1.01242A3.69339,3.69339,0,0,1,29.00968,44.36791Z"/><path class="cls-4" d="M45.21016,33.43485q-.76545-2.76049-1.53032-5.52116-1.574-5.718-3.14218-11.43764c-.21279-.77549-.45484-.96823-1.25523-.98283a1.97856,1.97856,0,0,0,.24693-1.09835,2.04582,2.04582,0,0,1,.13651-1.22572,3.20176,3.20176,0,0,1,3.08835,2.45644q1.07846,3.88834,2.13842,7.78179c.23323.85334.45191,1.71065.67725,2.56614.13408,2.24054.03153,4.48327.061,6.72478a1.264,1.264,0,0,1-.08367.61764C45.48273,33.43913,45.417,33.66876,45.21016,33.43485Z"/><path class="cls-5" d="M6.14735,44.36193A3.25244,3.25244,0,0,1,3.059,41.82487Q1.53725,35.3353.04753,28.83822a1.19846,1.19846,0,0,1,.867-1.57342,1.21818,1.21818,0,0,1,1.44623,1.0807Q3.8242,34.67478,5.28651,41.00433a1.17882,1.17882,0,0,0,.86112,1.03329A3.69634,3.69634,0,0,1,6.14735,44.36193Z"/><path class="cls-6" d="M39.66587,13.16915c0,.58054-.02522,1.16261.00974,1.741a.4788.4788,0,0,1-.39318.583,1.11757,1.11757,0,0,0-.80308.92462q-1.95846,8.5129-3.94254,17.01991a1.85616,1.85616,0,0,1-.08152.222c-.25457-.114-.26532-.35163-.26547-.5738-.00192-2.6991-.03853-5.39832.0199-8.0972a.6223.6223,0,0,0-.04033-.37264c.68174-2.96657,1.34673-5.93714,2.05174-8.89818A3.199,3.199,0,0,1,39.66587,13.16915Z"/><path class="cls-7" d="M62.625,13.19033a3.18171,3.18171,0,0,1,3.14111,2.56782c.71255,2.99164,1.39473,5.99051,2.09041,8.98616.25129,1.08205.51161,2.16205.75556,3.24574a1.19174,1.19174,0,1,1-2.29092.61232c-.49168-2.101-.9738-4.20414-1.46152-6.306-.44759-1.9289-.91046-3.85439-1.33807-5.78769a1.16593,1.16593,0,0,0-.89659-1.01182.69528.69528,0,0,1-.14929-.5813C62.52254,14.34029,62.32732,13.74333,62.625,13.19033Z"/><path class="cls-8" d="M34.16938,24.61616c.27654.08927.1629.32308.16337.49346q.01082,3.94743.00439,7.89491a1.11575,1.11575,0,0,0,.11813.65525c-.37569,1.6754-.74829,3.35148-1.12826,5.02589q-.35165,1.54959-.72158,3.095a3.26148,3.26148,0,0,1-3.59575,2.5872l.00007-2.32346c.90139.009,1.15835-.19842,1.362-1.08036Q32.077,33.58,33.7859,26.19678C33.90815,25.66861,34.0413,25.143,34.16938,24.61616Z"/><path class="cls-9" d="M45.21016,33.43485c.391-.01928.261-.326.262-.52234.01019-1.90284-.002-3.80582.01253-5.70861a2.68039,2.68039,0,0,1,.08519-1.23038c.51631,1.84176,1.03893,3.68178,1.54757,5.52565q1.4178,5.13958,2.82272,10.28271c.17324.6314.44968.908.963.96474v2.3042a3.22564,3.22564,0,0,1-3.18691-2.45214Q46.53471,38.321,45.36868,34.039C45.31368,33.83822,45.2629,33.63627,45.21016,33.43485Z"/><path class="cls-10" d="M23.30492,23.0621c-.36219.03856-.29992.31495-.30017.54774q-.00321,2.93571-.00273,5.87142c-.00026.20114.0597.42835-.17747.557-.48958-1.75418-.9837-3.5071-1.46772-5.26281q-1.23168-4.4678-2.454-8.93817c-.23418-.85151-.4562-1.01883-1.32116-1.02093a.46336.46336,0,0,0,.1951-.4072c-.01293-.511-.0196-1.02306.00108-1.5335.01252-.30913-.12382-.3995-.39839-.37074a3.247,3.247,0,0,1,3.67211,2.2779c.62291,2.17782,1.18974,4.37169,1.7816,6.55841C22.98855,21.91532,23.14757,22.48848,23.30492,23.0621Z"/><path class="cls-11" d="M62.625,13.19033l0,2.30651c-.74728.061-.96366.24232-1.16942.98425Q60.203,20.99746,58.95,25.51369a2.80525,2.80525,0,0,1-.10277.26578,2.61645,2.61645,0,0,1-.1-.80679q.00761-3.18594.001-6.37191c-.00027-.2013.06313-.42865-.16549-.5664.24448-.88165.45885-1.773.74022-2.64275A3.154,3.154,0,0,1,62.625,13.19033Z"/><path class="cls-12" d="M6.14735,44.36193l.00028-2.32429c.77995-.04962,1.01523-.23344,1.22036-.98429q1.191-4.35953,2.37807-8.72011a.70174.70174,0,0,1,.09779-.16289c.3833-.04527.167.2484.16773.35413.01445,2.15252.01,4.30515.01223,6.45776.00021.20159-.05815.42984.187.55126-.2454.89738-.44293,1.81137-.74713,2.68836A3.21035,3.21035,0,0,1,6.14735,44.36193Z"/><path class="cls-13" d="M53.61483,48.25659a4.99942,4.99942,0,0,1,1.402,7.27018A3.71579,3.71579,0,0,1,53.9058,56.583c-.29106-.153-.22406-.43526-.239-.68245a10.57109,10.57109,0,0,0-.08736-1.968c-.0286-.42391.20031-.80334.199-1.22961a2.89811,2.89811,0,0,0-.36878-1.62087.55743.55743,0,0,1-.11136-.45514,3.77243,3.77243,0,0,0,.17548-1.59548C53.48764,48.76832,53.40918,48.48574,53.61483,48.25659Z"/><path class="cls-14" d="M47.97009,56.49786A4.62371,4.62371,0,0,1,46.122,53.73444a4.93161,4.93161,0,0,1,1.964-5.29168c.37475.06907.3273.38139.34181.6333.03746.65014-.0241,1.30285.03655,1.9529.00995.43411-.23815.81293-.24218,1.25561a10.53187,10.53187,0,0,0,.17676,1.5577c-.1122.71609-.0149,1.43816-.067,2.15461C48.31627,56.21142,48.41986,56.572,47.97009,56.49786Z"/><path class="cls-15" d="M20.97162,1.26116a4.95211,4.95211,0,0,1,.01149,7.499c-.25021-.1193-.25962-.35643-.26047-.57939q-.012-3.16136.00128-6.32275A.63873.63873,0,0,1,20.97162,1.26116Z"/><path class="cls-16" d="M14.09274,8.53409a4.96281,4.96281,0,0,1,.081-7.10216.43263.43263,0,0,1,.24907.43459c.03442,2.075.03,4.15016.001,6.22515C14.42092,8.29374,14.39029,8.52759,14.09274,8.53409Z"/><path class="cls-17" d="M20.97162,1.26116a2.66107,2.66107,0,0,0-.10234.8069q.00843,3.01821.00232,6.03646a1.18368,1.18368,0,0,0,.11151.65563,3.52083,3.52083,0,0,1-1.36517.85765c-.17359-.16272-.14539-.37988-.14985-.584-.01115-.51138.01088-1.02338-.02864-1.53358a.58475.58475,0,0,1,.20623-.47173A3.36661,3.36661,0,0,0,20.49243,5.421a1.47038,1.47038,0,0,0,.006-.83217,3.09239,3.09239,0,0,0-1.2133-1.88621c-.12025-.07968-.22735-.18421-.17112-.35791A7.75938,7.75938,0,0,0,19.18493.904c.0135-.21589-.03628-.46458.23088-.58323A3.76551,3.76551,0,0,1,20.97162,1.26116Z"/><path class="cls-18" d="M14.09274,8.53409c.20272-.09245.19276-.27341.19268-.45357q-.00141-3.093.00143-6.18593a.98277.98277,0,0,0-.11312-.46266A1.98041,1.98041,0,0,1,14.864.8765c.274.13682.22568.39936.24167.63286a9.63769,9.63769,0,0,0,.08084,1.81972.46017.46017,0,0,1-.01672.37345,2.86817,2.86817,0,0,0,.87543,3.6269.73109.73109,0,0,1,.21.26194,11.73905,11.73905,0,0,1-.01,1.8285c-.00573.15743-.0387.38579-.3182.27925A4.11747,4.11747,0,0,1,14.09274,8.53409Z"/><path class="cls-19" d="M47.97009,56.49786c.28846-.04355.20917-.27011.21989-.44816a11.3532,11.3532,0,0,1,.09923-2.27909c.14389-.02994.20136.08107.25718.17241a3.08121,3.08121,0,0,0,1.30886,1.16914.72747.72747,0,0,1,.32007.28463,3.65682,3.65682,0,0,1-.04718,2.04783A4.113,4.113,0,0,1,47.97009,56.49786Z"/><path class="cls-20" d="M50.12814,57.44462a9.38547,9.38547,0,0,0-.09706-2.10906c.15378-.13712.337-.07992.507-.06483.53014.04706,1.05541-.05958,1.58473-.03895a.28654.28654,0,0,1,.228.22773,3.56694,3.56694,0,0,1-.09136,1.89446A3.96469,3.96469,0,0,1,50.12814,57.44462Z"/><path class="cls-9" d="M53.61483,48.25659c.00025.59523.01124,1.19076-.00449,1.78558-.0064.24182.02938.52936-.29432.63573a.2541.2541,0,0,1-.26394-.07748,3.36509,3.36509,0,0,0-1.14479-.78376.41424.41424,0,0,1-.25289-.33134,12.309,12.309,0,0,1-.02222-1.46878.53553.53553,0,0,1,.1428-.43608A3.66409,3.66409,0,0,1,53.61483,48.25659Z"/><path class="cls-8" d="M15.927,9.69912c.08238-.01429.17965-.04414.18121-.13065.012-.6677.01309-1.3356.01755-2.00344a11.41292,11.41292,0,0,1,2.09874.42835,3.52568,3.52568,0,0,1-.06472,1.98919A3.933,3.933,0,0,1,15.927,9.69912Z"/><path class="cls-21" d="M51.775,47.58046l-.0064,2.052a4.4095,4.4095,0,0,1-1.86484.09848,2.62915,2.62915,0,0,1-.07129-2.07364A3.56325,3.56325,0,0,1,51.775,47.58046Z"/><path class="cls-22" d="M52.25946,57.354c0-.54554.00092-1.09108-.00061-1.63663-.00048-.17311.036-.37-.22076-.405.23553-.39377.71027-.50662.99458-.85817.1711-.21159.28881-.50922.60412-.5818.22755.13534.15966.36062.17323.56252A9.95574,9.95574,0,0,0,53.9058,56.583,3.64222,3.64222,0,0,1,52.25946,57.354Z"/><path class="cls-23" d="M19.41581.32074a6.40238,6.40238,0,0,0-.09542,1.6739c-.01549.15883.08908.37468-.17743.43361a4.35074,4.35074,0,0,1-1.734-.43716A3.593,3.593,0,0,1,17.48167.01535,4.01443,4.01443,0,0,1,19.41581.32074Z"/><path class="cls-24" d="M49.83245,47.65731a10.00769,10.00769,0,0,0,.10213,2.05255.42318.42318,0,0,1-.24069.28287,3.11058,3.11058,0,0,0-1.03505.91364c-.05958.08593-.12875.19231-.26893.15765a6.53966,6.53966,0,0,1-.10043-1.82622c-.02384-.27788.06418-.58082-.20352-.795A3.72125,3.72125,0,0,1,49.83245,47.65731Z"/><path class="cls-25" d="M17.48167.01535l0,2.02376a3.26318,3.26318,0,0,1-1.64989.52134A3.64452,3.64452,0,0,1,15.82329.36426,3.56085,3.56085,0,0,1,17.48167.01535Z"/><path class="cls-4" d="M18.1598,9.98257l.00008-2.02377A2.83479,2.83479,0,0,1,19.51,7.35364a5.69134,5.69134,0,0,1,.10093,1.69367c.01455.18922.00537.38027.007.57048A2.9996,2.9996,0,0,1,18.1598,9.98257Z"/><path class="cls-18" d="M15.82329.36426a12.67669,12.67669,0,0,0,.1076,2.23975,1.51223,1.51223,0,0,1-.76826.7982c-.26891-.043-.1949-.256-.19707-.41861-.0069-.51516-.00432-1.03048-.00167-1.54571A1.01058,1.01058,0,0,0,14.864.8765,2.43875,2.43875,0,0,1,15.82329.36426Z"/><path class="cls-15" d="M20.60808,5.42863l-.00581-.86116A1.11806,1.11806,0,0,1,20.60808,5.42863Z"/></g></g></svg>